<?xml version="1.0" encoding="utf-8"?>
<!-- Generator: Adobe Illustrator 16.0.0, SVG Export Plug-In . SVG Version: 6.00 Build 0)  -->
<!DOCTYPE svg PUBLIC "-//W3C//DTD SVG 1.1//EN" "http://www.w3.org/Graphics/SVG/1.1/DTD/svg11.dtd">
<svg version="1.1" id="Layer_1" xmlns="http://www.w3.org/2000/svg" xmlns:xlink="http://www.w3.org/1999/xlink" x="0px" y="0px"
	 width="612px" height="792px" viewBox="0 0 612 792" enable-background="new 0 0 612 792" xml:space="preserve">
<g>
	<path fill-rule="evenodd" clip-rule="evenodd" fill="#FFFFFF" d="M132.266,222.266c116.234,0,232.469,0,348.707,0
		c0,116.234,0,232.469,0,348.707c-116.238,0-232.473,0-348.707,0C132.266,454.734,132.266,338.5,132.266,222.266z M264.402,529.004
		c1.488,0.98,2.98,1.965,4.473,2.945c1.023-17.691,8.926-17.23,21.777-15.992c14.742,1.426,31.332-1.277,45.02-7.113
		c26.586-11.336,42.371-43.41,38.477-70.879c-4.352-30.77-23.547-53.301-49.816-58.488c20.594,24.707,24.051,43.195,12.004,64.258
		c-9.973,17.441-25.047,24.836-45.203,21.738c0.891-6.207,1.777-12.426,2.926-20.469c-23.645,8.035-45.012,15.289-67.949,23.078
		C239.996,490.176,252.199,509.59,264.402,529.004z M337.535,278.664c-53.488-10.297-89.289,7.711-99.531,49
		c-9.152,36.914,9.246,72.594,44.98,84.016c-18.859-22.219-24.277-45-7.02-68.73c10.406-14.313,25.098-20.25,44.699-19.371
		c-2.18,8.828-3.609,14.625-5.762,23.344c23.852-6.77,45.504-12.914,69.582-19.746c-12.883-22.828-24.359-43.176-36.961-65.52
		C343.477,268.547,340.734,273.219,337.535,278.664z"/>
	<path fill-rule="evenodd" clip-rule="evenodd" d="M264.402,529.004c-12.203-19.414-24.406-38.828-38.293-60.922
		c22.938-7.789,44.305-15.043,67.949-23.078c-1.148,8.043-2.035,14.262-2.926,20.469c20.156,3.098,35.23-4.297,45.203-21.738
		c12.047-21.063,8.59-39.551-12.004-64.258c26.27,5.188,45.465,27.719,49.816,58.488c3.895,27.469-11.891,59.543-38.477,70.879
		c-13.688,5.836-30.277,8.539-45.02,7.113c-12.852-1.238-20.754-1.699-21.777,15.992
		C267.383,530.969,265.891,529.984,264.402,529.004z"/>
	<path fill-rule="evenodd" clip-rule="evenodd" d="M337.535,278.664c3.199-5.445,5.941-10.117,9.988-17.008
		c12.602,22.344,24.078,42.691,36.961,65.52c-24.078,6.832-45.73,12.977-69.582,19.746c2.152-8.719,3.582-14.516,5.762-23.344
		c-19.602-0.879-34.293,5.059-44.699,19.371c-17.258,23.73-11.84,46.512,7.02,68.73c-35.734-11.422-54.133-47.102-44.98-84.016
		C248.246,286.375,284.047,268.367,337.535,278.664z"/>
</g>
</svg>
